Title                            : City Island
Year                             : 2009
Genre                            : Comedy | Drama
iMDB URL                         : http://www.imdb.com/title/tt1174730/
Awards                           : 1 win

Complete name                    : City.Island.2009.BRRIP.720P.H264-ZEKTORM.mp4
Format                           : MPEG-4
Format profile                   : Base Media
Codec ID                         : isom
File size                        : 1.76 GiB
Duration                         : 1h 43mn
Overall bit rate                 : 2428 Kbps
Subtitles                        : English (Format: srt)

Video
ID                               : 1
Format                           : AVC
Format/Info                      : Advanced Video Codec
Format profile                   : High@L4.0
Format settings, CABAC           : Yes
Format settings, ReFrames        : 4 frames
Codec ID                         : avc1
Codec ID/Info                    : Advanced Video Coding
Duration                         : 1h 43mn
Bit rate mode                    : Variable
Bit rate                         : 2144 Kbps
Width                            : 1280 pixels
Height                           : 672 pixels
Display aspect ratio             : 1.905
Frame rate mode                  : Constant
Frame rate                       : 23.976 fps
Resolution                       : 24 bits
Colorimetry                      : 4:2:0
Scan type                        : Progressive
Bits/(Pixel*Frame)               : 0.104
Stream size                      : 1.55 GiB (88%)
Title                            : Video
Writing library                  : x264

Audio #1
ID                               : 2
Format                           : AAC
Format/Info                      : Advanced Audio Codec
Format version                   : Version 4
Format profile                   : LC
Format settings, SBR             : Yes
Format settings, PS              : No
Codec ID                         : 40
Duration                         : 1h 43mn
Bit rate mode                    : Variable
Bit rate                         : 203 Kbps
Maximum bit rate                 : 266 Kbps
Channel(s)                       : 6 channels
Channel positions                : Front: L C R, Rear: L R, LFE
Sampling rate                    : 48.0 KHz
Resolution                       : 16 bits
Stream size                      : 150 MiB (8%)
Title                            : English
Language                         : English

Audio #2
ID                               : 3
Format                           : AAC
Format/Info                      : Advanced Audio Codec
Format version                   : Version 4
Format profile                   : LC
Format settings, SBR             : Yes
Format settings, PS              : No
Codec ID                         : 40
Duration                         : 1h 43mn
Bit rate mode                    : Variable
Bit rate                         : 78.2 Kbps
Maximum bit rate                 : 106 Kbps
Channel(s)                       : 2 channels
Channel positions                : L R
Sampling rate                    : 48.0 KHz
Resolution                       : 16 bits
Stream size                      : 58.0 MiB (3%)
Language                         : English
